<?xml version="1.0" encoding="UTF-8" standalone="no"?>
<!DOCTYPE svg PUBLIC "-//W3C//DTD SVG 1.1//EN"
 "http://www.w3.org/Graphics/SVG/1.1/DTD/svg11.dtd">
<!-- Generated by graphviz version 2.50.0 (0)
 -->
<!-- Title: cluster_Cyanview Pages: 1 -->
<svg width="104pt" height="216pt"
 viewBox="0.00 0.00 103.73 216.00" xmlns="http://www.w3.org/2000/svg" xmlns:xlink="http://www.w3.org/1999/xlink">
<g id="graph0" class="graph" transform="scale(0.17 0.17) rotate(0) translate(4 1260)">
<title>cluster_Cyanview</title>
<polygon fill="white" stroke="transparent" points="-4,4 -4,-1260 603,-1260 603,4 -4,4"/>
<text text-anchor="middle" x="299.5" y="-7.8" font-family="Times,serif" font-size="14.00">Cyanview</text>
<g id="clust1" class="cluster">
<title>cluster_Mini Camera</title>
<polygon fill="lightyellow" stroke="lightyellow" points="281.5,-903 281.5,-1248 584,-1248 584,-903 281.5,-903"/>
<text text-anchor="middle" x="432.75" y="-1232.8" font-family="Times,serif" font-size="14.00">Mini Camera</text>
</g>
<g id="clust2" class="cluster">
<title>cluster_PTZ</title>
<polygon fill="lightyellow" stroke="lightyellow" points="275,-550 275,-895 579.5,-895 579.5,-550 275,-550"/>
<text text-anchor="middle" x="427.25" y="-879.8" font-family="Times,serif" font-size="14.00">PTZ</text>
</g>
<g id="clust3" class="cluster">
<title>cluster_Shoulder Camcorder</title>
<polygon fill="lightyellow" stroke="lightyellow" points="281.5,-305 281.5,-542 574.5,-542 574.5,-305 281.5,-305"/>
<text text-anchor="middle" x="428" y="-526.8" font-family="Times,serif" font-size="14.00">Shoulder Camcorder</text>
</g>
<g id="clust4" class="cluster">
<title>cluster_DSLR</title>
<polygon fill="lightyellow" stroke="lightyellow" points="275,-168 275,-297 591,-297 591,-168 275,-168"/>
<text text-anchor="middle" x="433" y="-281.8" font-family="Times,serif" font-size="14.00">DSLR</text>
</g>
<g id="clust5" class="cluster">
<title>cluster_Large Sensor</title>
<polygon fill="lightyellow" stroke="lightyellow" points="281.5,-31 281.5,-160 567,-160 567,-31 281.5,-31"/>
<text text-anchor="middle" x="424.25" y="-144.8" font-family="Times,serif" font-size="14.00">Large Sensor</text>
</g>
<g id="clust6" class="cluster">
<title>cluster_Control</title>
<polygon fill="lightyellow" stroke="lightyellow" points="8,-447 8,-738 209,-738 209,-447 8,-447"/>
<text text-anchor="middle" x="108.5" y="-722.8" font-family="Times,serif" font-size="14.00">Control</text>
</g>
<!-- AtomOne 4K_0 -->
<g id="node1" class="node">
<title>AtomOne 4K_0</title>
<polygon fill="#e0ffff" stroke="#e0ffff" points="576,-1217 472,-1217 472,-1181 576,-1181 576,-1217"/>
<text text-anchor="middle" x="524" y="-1195.3" font-family="Times,serif" font-size="14.00">AtomOne 4K_0</text>
</g>
<!-- CI0Mini Camera -->
<g id="node2" class="node">
<title>CI0Mini Camera</title>
<polygon fill="#e0ffff" stroke="#e0ffff" points="343.5,-952 289.5,-952 289.5,-916 343.5,-916 343.5,-952"/>
<text text-anchor="middle" x="316.5" y="-930.3" font-family="Times,serif" font-size="14.00">CI0</text>
</g>
<!-- AtomOne 4K_0&#45;&#45;CI0Mini Camera -->
<g id="edge1" class="edge">
<title>AtomOne 4K_0&#45;&#45;CI0Mini Camera</title>
<path fill="none" stroke="black" d="M471.7,-1192.01C437.61,-1184.7 394.41,-1169.88 368,-1140 319.6,-1085.23 315.89,-991.54 316.67,-952.22"/>
<text text-anchor="middle" x="407.5" y="-1186.6" font-family="Times,serif" font-size="8.00">CY&#45;CBL&#45;6P&#45;DCHIP&#45;02</text>
</g>
<!-- Switcher_Mini Camera -->
<g id="node27" class="node">
<title>Switcher_Mini Camera</title>
<polygon fill="#e0ffff" stroke="#e0ffff" points="181,-707 36,-707 36,-671 181,-671 181,-707"/>
<text text-anchor="middle" x="108.5" y="-685.3" font-family="Times,serif" font-size="14.00">Switcher_Mini Camera</text>
</g>
<!-- CI0Mini Camera&#45;&#45;Switcher_Mini Camera -->
<g id="edge21" class="edge">
<title>CI0Mini Camera&#45;&#45;Switcher_Mini Camera</title>
<path fill="none" stroke="black" d="M289.18,-935.6C268.18,-935.52 239.06,-932.21 219,-917 147.79,-863.01 120.6,-750.78 112.44,-707.02"/>
<text text-anchor="middle" x="242" y="-935.6" font-family="Times,serif" font-size="8.00">Ethernet Link</text>
</g>
<!-- CI0Mini Camera&#45;&#45;Switcher_Mini Camera -->
<g id="edge22" class="edge">
<title>CI0Mini Camera&#45;&#45;Switcher_Mini Camera</title>
<path fill="none" stroke="black" d="M289.32,-920.45C281.51,-916.42 272.91,-912.02 265,-908 244.62,-897.66 235.53,-900.79 219,-885 163.61,-832.1 128.74,-744.93 115.52,-707.27"/>
<text text-anchor="middle" x="242" y="-910.6" font-family="Times,serif" font-size="8.00">Ethernet Link</text>
</g>
<!-- CI0Mini Camera&#45;&#45;Switcher_Mini Camera -->
<g id="edge23" class="edge">
<title>CI0Mini Camera&#45;&#45;Switcher_Mini Camera</title>
<path fill="none" stroke="black" d="M291.06,-915.98C285.29,-910.94 279.51,-905.14 275,-899 268.4,-890.02 272.67,-884.09 265,-876 249.28,-859.41 236.14,-868.12 219,-853 170.09,-809.86 133.34,-740.11 117.73,-707.24"/>
<text text-anchor="middle" x="242" y="-878.6" font-family="Times,serif" font-size="8.00">Ethernet Link</text>
</g>
<!-- CI0Mini Camera&#45;&#45;Switcher_Mini Camera -->
<g id="edge24" class="edge">
<title>CI0Mini Camera&#45;&#45;Switcher_Mini Camera</title>
<path fill="none" stroke="black" d="M289.2,-915.9C283.76,-911 278.6,-905.29 275,-899 262.68,-877.43 279.91,-863.88 265,-844 251.29,-825.71 236.9,-835.21 219,-821 176.56,-787.31 139.12,-734.8 121.02,-707.27"/>
<text text-anchor="middle" x="242" y="-846.6" font-family="Times,serif" font-size="8.00">Ethernet Link</text>
</g>
<!-- CI0Mini Camera&#45;&#45;Switcher_Mini Camera -->
<g id="edge25" class="edge">
<title>CI0Mini Camera&#45;&#45;Switcher_Mini Camera</title>
<path fill="none" stroke="black" d="M289.32,-916.44C283.73,-911.46 278.47,-905.57 275,-899 256.81,-864.59 287.32,-843.88 265,-812 251.89,-793.28 237.84,-801.94 219,-789 183.14,-764.37 146.9,-728.68 126.42,-707.26"/>
<text text-anchor="middle" x="242" y="-814.6" font-family="Times,serif" font-size="8.00">Ethernet Link</text>
</g>
<!-- CI0Mini Camera&#45;&#45;Switcher_Mini Camera -->
<g id="edge26" class="edge">
<title>CI0Mini Camera&#45;&#45;Switcher_Mini Camera</title>
<path fill="none" stroke="black" d="M289.18,-916.51C283.59,-911.53 278.37,-905.63 275,-899 262.96,-875.35 279.15,-802.45 265,-780 261.27,-774.08 186.73,-731.95 142.23,-707.14"/>
<text text-anchor="middle" x="242" y="-782.6" font-family="Times,serif" font-size="8.00">Ethernet Link</text>
</g>
<!-- AtomOne 4K_1 -->
<g id="node3" class="node">
<title>AtomOne 4K_1</title>
<polygon fill="#e0ffff" stroke="#e0ffff" points="576,-1163 472,-1163 472,-1127 576,-1127 576,-1163"/>
<text text-anchor="middle" x="524" y="-1141.3" font-family="Times,serif" font-size="14.00">AtomOne 4K_1</text>
</g>
<!-- AtomOne 4K_1&#45;&#45;CI0Mini Camera -->
<g id="edge2" class="edge">
<title>AtomOne 4K_1&#45;&#45;CI0Mini Camera</title>
<path fill="none" stroke="black" d="M471.74,-1135.67C438.1,-1127.06 395.42,-1111.04 368,-1082 333.14,-1045.09 322.26,-983.13 318.93,-952.41"/>
<text text-anchor="middle" x="407.5" y="-1129.6" font-family="Times,serif" font-size="8.00">CY&#45;CBL&#45;6P&#45;DCHIP&#45;02</text>
</g>
<!-- AtomOne 4K_2 -->
<g id="node4" class="node">
<title>AtomOne 4K_2</title>
<polygon fill="#e0ffff" stroke="#e0ffff" points="576,-1109 472,-1109 472,-1073 576,-1073 576,-1109"/>
<text text-anchor="middle" x="524" y="-1087.3" font-family="Times,serif" font-size="14.00">AtomOne 4K_2</text>
</g>
<!-- AtomOne 4K_2&#45;&#45;CI0Mini Camera -->
<g id="edge3" class="edge">
<title>AtomOne 4K_2&#45;&#45;CI0Mini Camera</title>
<path fill="none" stroke="black" d="M471.87,-1078.53C439.14,-1068.46 397.44,-1051.53 368,-1025 345.58,-1004.8 330.92,-972.23 323.44,-952.03"/>
<text text-anchor="middle" x="407.5" y="-1071.6" font-family="Times,serif" font-size="8.00">CY&#45;CBL&#45;6P&#45;DCHIP&#45;02</text>
</g>
<!-- AtomOne 4K_3 -->
<g id="node5" class="node">
<title>AtomOne 4K_3</title>
<polygon fill="#e0ffff" stroke="#e0ffff" points="576,-1055 472,-1055 472,-1019 576,-1019 576,-1055"/>
<text text-anchor="middle" x="524" y="-1033.3" font-family="Times,serif" font-size="14.00">AtomOne 4K_3</text>
</g>
<!-- AtomOne 4K_3&#45;&#45;CI0Mini Camera -->
<g id="edge4" class="edge">
<title>AtomOne 4K_3&#45;&#45;CI0Mini Camera</title>
<path fill="none" stroke="black" d="M471.81,-1022.01C440.6,-1011.72 400.6,-996.42 368,-977 356.52,-970.16 345.08,-960.69 335.99,-952.38"/>
<text text-anchor="middle" x="407.5" y="-1014.6" font-family="Times,serif" font-size="8.00">CY&#45;CBL&#45;6P&#45;DCHIP&#45;02</text>
</g>
<!-- CV225_0 -->
<g id="node6" class="node">
<title>CV225_0</title>
<polygon fill="#e0ffff" stroke="#e0ffff" points="558.5,-1001 489.5,-1001 489.5,-965 558.5,-965 558.5,-1001"/>
<text text-anchor="middle" x="524" y="-979.3" font-family="Times,serif" font-size="14.00">CV225_0</text>
</g>
<!-- CV225_0&#45;&#45;CI0Mini Camera -->
<g id="edge5" class="edge">
<title>CV225_0&#45;&#45;CI0Mini Camera</title>
<path fill="none" stroke="black" d="M489.07,-974.91C448.25,-965.18 380.64,-949.05 343.65,-940.24"/>
<text text-anchor="middle" x="407.5" y="-966.6" font-family="Times,serif" font-size="8.00">CY&#45;CBL&#45;6P&#45;PFAN</text>
</g>
<!-- CV225_1 -->
<g id="node7" class="node">
<title>CV225_1</title>
<polygon fill="#e0ffff" stroke="#e0ffff" points="558.5,-947 489.5,-947 489.5,-911 558.5,-911 558.5,-947"/>
<text text-anchor="middle" x="524" y="-925.3" font-family="Times,serif" font-size="14.00">CV225_1</text>
</g>
<!-- CV225_1&#45;&#45;CI0Mini Camera -->
<g id="edge6" class="edge">
<title>CV225_1&#45;&#45;CI0Mini Camera</title>
<path fill="none" stroke="black" d="M489.07,-929.83C448.25,-930.82 380.64,-932.46 343.65,-933.36"/>
<text text-anchor="middle" x="407.5" y="-934.6" font-family="Times,serif" font-size="8.00">CY&#45;CBL&#45;6P&#45;PFAN</text>
</g>
<!-- AW&#45;HE130_0 -->
<g id="node8" class="node">
<title>AW&#45;HE130_0</title>
<polygon fill="#e0ffff" stroke="#e0ffff" points="571.5,-864 476.5,-864 476.5,-828 571.5,-828 571.5,-864"/>
<text text-anchor="middle" x="524" y="-842.3" font-family="Times,serif" font-size="14.00">AW&#45;HE130_0</text>
</g>
<!-- PassThruPTZ -->
<g id="node9" class="node">
<title>PassThruPTZ</title>
<polygon fill="#e0ffff" stroke="#e0ffff" points="350,-744 283,-744 283,-708 350,-708 350,-744"/>
<text text-anchor="middle" x="316.5" y="-722.3" font-family="Times,serif" font-size="14.00">PassThru</text>
</g>
<!-- AW&#45;HE130_0&#45;&#45;PassThruPTZ -->
<g id="edge7" class="edge">
<title>AW&#45;HE130_0&#45;&#45;PassThruPTZ</title>
<path fill="none" stroke="black" d="M476.19,-832.73C443.92,-822.19 401.07,-805.32 368,-782 353.24,-771.59 339.72,-756.13 330.39,-744.09"/>
<text text-anchor="middle" x="407.5" y="-823.6" font-family="Times,serif" font-size="8.00">Ethernet&#45;RJ45</text>
</g>
<!-- Switcher_PTZ -->
<g id="node28" class="node">
<title>Switcher_PTZ</title>
<polygon fill="#e0ffff" stroke="#e0ffff" points="156,-653 61,-653 61,-617 156,-617 156,-653"/>
<text text-anchor="middle" x="108.5" y="-631.3" font-family="Times,serif" font-size="14.00">Switcher_PTZ</text>
</g>
<!-- PassThruPTZ&#45;&#45;Switcher_PTZ -->
<g id="edge27" class="edge">
<title>PassThruPTZ&#45;&#45;Switcher_PTZ</title>
<path fill="none" stroke="black" d="M282.68,-735.44C262.02,-739.25 236.13,-739.78 219,-725 197.53,-706.48 227.94,-683.1 209,-662 195.67,-647.15 175.07,-640.11 156.07,-636.9"/>
<text text-anchor="middle" x="242" y="-739.6" font-family="Times,serif" font-size="8.00">Ethernet Link</text>
</g>
<!-- PassThruPTZ&#45;&#45;Switcher_PTZ -->
<g id="edge28" class="edge">
<title>PassThruPTZ&#45;&#45;Switcher_PTZ</title>
<path fill="none" stroke="black" d="M282.88,-718.2C258.59,-711.79 228.12,-702.28 219,-693 208.85,-682.67 219.47,-671.99 209,-662 194.82,-648.47 174.57,-641.58 156.03,-638.11"/>
<text text-anchor="middle" x="242" y="-714.6" font-family="Times,serif" font-size="8.00">Ethernet Link</text>
</g>
<!-- PassThruPTZ&#45;&#45;Switcher_PTZ -->
<g id="edge29" class="edge">
<title>PassThruPTZ&#45;&#45;Switcher_PTZ</title>
<path fill="none" stroke="black" d="M296.45,-707.68C287.43,-699.67 276.19,-690.62 265,-684 231.13,-663.97 188.2,-651.25 156.03,-643.8"/>
<text text-anchor="middle" x="242" y="-686.6" font-family="Times,serif" font-size="8.00">Ethernet Link</text>
</g>
<!-- PassThruPTZ&#45;&#45;Switcher_PTZ -->
<g id="edge30" class="edge">
<title>PassThruPTZ&#45;&#45;Switcher_PTZ</title>
<path fill="none" stroke="black" d="M308.52,-707.99C300.73,-690.51 286.34,-664.8 265,-652 232.4,-632.44 188.95,-629.19 156.27,-630.26"/>
<text text-anchor="middle" x="242" y="-654.6" font-family="Times,serif" font-size="8.00">Ethernet Link</text>
</g>
<!-- AW&#45;HE130_1 -->
<g id="node10" class="node">
<title>AW&#45;HE130_1</title>
<polygon fill="#e0ffff" stroke="#e0ffff" points="571.5,-810 476.5,-810 476.5,-774 571.5,-774 571.5,-810"/>
<text text-anchor="middle" x="524" y="-788.3" font-family="Times,serif" font-size="14.00">AW&#45;HE130_1</text>
</g>
<!-- AW&#45;HE130_1&#45;&#45;PassThruPTZ -->
<g id="edge8" class="edge">
<title>AW&#45;HE130_1&#45;&#45;PassThruPTZ</title>
<path fill="none" stroke="black" d="M476.2,-779.28C445.27,-770.58 403.95,-758.43 368,-746 362.21,-744 356.1,-741.72 350.21,-739.44"/>
<text text-anchor="middle" x="407.5" y="-771.6" font-family="Times,serif" font-size="8.00">Ethernet&#45;RJ45</text>
</g>
<!-- AW&#45;HE130_2 -->
<g id="node11" class="node">
<title>AW&#45;HE130_2</title>
<polygon fill="#e0ffff" stroke="#e0ffff" points="571.5,-756 476.5,-756 476.5,-720 571.5,-720 571.5,-756"/>
<text text-anchor="middle" x="524" y="-734.3" font-family="Times,serif" font-size="14.00">AW&#45;HE130_2</text>
</g>
<!-- AW&#45;HE130_2&#45;&#45;PassThruPTZ -->
<g id="edge9" class="edge">
<title>AW&#45;HE130_2&#45;&#45;PassThruPTZ</title>
<path fill="none" stroke="black" d="M476.37,-735.28C437.88,-733.03 384.24,-729.9 350.2,-727.91"/>
<text text-anchor="middle" x="407.5" y="-735.6" font-family="Times,serif" font-size="8.00">Ethernet&#45;RJ45</text>
</g>
<!-- AW&#45;HE130_3 -->
<g id="node12" class="node">
<title>AW&#45;HE130_3</title>
<polygon fill="#e0ffff" stroke="#e0ffff" points="571.5,-702 476.5,-702 476.5,-666 571.5,-666 571.5,-702"/>
<text text-anchor="middle" x="524" y="-680.3" font-family="Times,serif" font-size="14.00">AW&#45;HE130_3</text>
</g>
<!-- AW&#45;HE130_3&#45;&#45;PassThruPTZ -->
<g id="edge10" class="edge">
<title>AW&#45;HE130_3&#45;&#45;PassThruPTZ</title>
<path fill="none" stroke="black" d="M476.37,-693.53C437.88,-701.4 384.24,-712.36 350.2,-719.32"/>
<text text-anchor="middle" x="407.5" y="-716.6" font-family="Times,serif" font-size="8.00">Ethernet&#45;RJ45</text>
</g>
<!-- BRC&#45;H800_0 -->
<g id="node13" class="node">
<title>BRC&#45;H800_0</title>
<polygon fill="#e0ffff" stroke="#e0ffff" points="570,-648 478,-648 478,-612 570,-612 570,-648"/>
<text text-anchor="middle" x="524" y="-626.3" font-family="Times,serif" font-size="14.00">BRC&#45;H800_0</text>
</g>
<!-- RIOPTZ -->
<g id="node14" class="node">
<title>RIOPTZ</title>
<polygon fill="#e0ffff" stroke="#e0ffff" points="343.5,-625 289.5,-625 289.5,-589 343.5,-589 343.5,-625"/>
<text text-anchor="middle" x="316.5" y="-603.3" font-family="Times,serif" font-size="14.00">RIO</text>
</g>
<!-- BRC&#45;H800_0&#45;&#45;RIOPTZ -->
<g id="edge11" class="edge">
<title>BRC&#45;H800_0&#45;&#45;RIOPTZ</title>
<path fill="none" stroke="black" d="M477.9,-624.95C436.79,-620.35 377.46,-613.71 343.67,-609.93"/>
<text text-anchor="middle" x="407.5" y="-623.6" font-family="Times,serif" font-size="8.00">Ethernet&#45;RJ45</text>
</g>
<!-- RIOPTZ&#45;&#45;Switcher_PTZ -->
<g id="edge31" class="edge">
<title>RIOPTZ&#45;&#45;Switcher_PTZ</title>
<path fill="none" stroke="black" d="M289.29,-610.52C269.88,-613.12 242.79,-616.77 219,-620 198.37,-622.8 175.56,-625.92 156.12,-628.59"/>
<text text-anchor="middle" x="242" y="-622.6" font-family="Times,serif" font-size="8.00">Ethernet Link</text>
</g>
<!-- RIOPTZ&#45;&#45;Switcher_PTZ -->
<g id="edge32" class="edge">
<title>RIOPTZ&#45;&#45;Switcher_PTZ</title>
<path fill="none" stroke="black" d="M289.36,-602.68C281.55,-601.58 272.95,-600.55 265,-600 244.6,-598.59 238.29,-593.23 219,-600 213.63,-601.88 214.07,-605.42 209,-608 192.56,-616.35 173.24,-622.35 156.03,-626.54"/>
<text text-anchor="middle" x="242" y="-602.6" font-family="Times,serif" font-size="8.00">Ethernet Link</text>
</g>
<!-- BRC&#45;H800_1 -->
<g id="node15" class="node">
<title>BRC&#45;H800_1</title>
<polygon fill="#e0ffff" stroke="#e0ffff" points="570,-594 478,-594 478,-558 570,-558 570,-594"/>
<text text-anchor="middle" x="524" y="-572.3" font-family="Times,serif" font-size="14.00">BRC&#45;H800_1</text>
</g>
<!-- BRC&#45;H800_1&#45;&#45;RIOPTZ -->
<g id="edge12" class="edge">
<title>BRC&#45;H800_1&#45;&#45;RIOPTZ</title>
<path fill="none" stroke="black" d="M477.9,-582.8C436.79,-589.01 377.46,-597.95 343.67,-603.05"/>
<text text-anchor="middle" x="407.5" y="-600.6" font-family="Times,serif" font-size="8.00">Ethernet&#45;RJ45</text>
</g>
<!-- PXW&#45;500_0 -->
<g id="node16" class="node">
<title>PXW&#45;500_0</title>
<polygon fill="#e0ffff" stroke="#e0ffff" points="566.5,-511 481.5,-511 481.5,-475 566.5,-475 566.5,-511"/>
<text text-anchor="middle" x="524" y="-489.3" font-family="Times,serif" font-size="14.00">PXW&#45;500_0</text>
</g>
<!-- CI0Shoulder Camcorder -->
<g id="node17" class="node">
<title>CI0Shoulder Camcorder</title>
<polygon fill="#e0ffff" stroke="#e0ffff" points="343.5,-493 289.5,-493 289.5,-457 343.5,-457 343.5,-493"/>
<text text-anchor="middle" x="316.5" y="-471.3" font-family="Times,serif" font-size="14.00">CI0</text>
</g>
<!-- PXW&#45;500_0&#45;&#45;CI0Shoulder Camcorder -->
<g id="edge13" class="edge">
<title>PXW&#45;500_0&#45;&#45;CI0Shoulder Camcorder</title>
<path fill="none" stroke="black" d="M481.41,-489.36C440.25,-485.75 378.49,-480.34 343.72,-477.3"/>
<text text-anchor="middle" x="407.5" y="-488.6" font-family="Times,serif" font-size="8.00">CY&#45;CBL&#45;SONY&#45;8P&#45;03</text>
</g>
<!-- Switcher_Shoulder Camcorder -->
<g id="node29" class="node">
<title>Switcher_Shoulder Camcorder</title>
<polygon fill="#e0ffff" stroke="#e0ffff" points="201,-599 16,-599 16,-563 201,-563 201,-599"/>
<text text-anchor="middle" x="108.5" y="-577.3" font-family="Times,serif" font-size="14.00">Switcher_Shoulder Camcorder</text>
</g>
<!-- CI0Shoulder Camcorder&#45;&#45;Switcher_Shoulder Camcorder -->
<g id="edge33" class="edge">
<title>CI0Shoulder Camcorder&#45;&#45;Switcher_Shoulder Camcorder</title>
<path fill="none" stroke="black" d="M303.45,-493.1C294.22,-505.76 280.47,-522.27 265,-533 245.97,-546.21 223.17,-555.88 200.98,-562.92"/>
<text text-anchor="middle" x="242" y="-557.6" font-family="Times,serif" font-size="8.00">Ethernet Link</text>
</g>
<!-- CI0Shoulder Camcorder&#45;&#45;Switcher_Shoulder Camcorder -->
<g id="edge34" class="edge">
<title>CI0Shoulder Camcorder&#45;&#45;Switcher_Shoulder Camcorder</title>
<path fill="none" stroke="black" d="M289.32,-488.55C281.51,-492.58 272.91,-496.98 265,-501 244.62,-511.34 233.98,-506.73 219,-524 209.79,-534.62 219.22,-544.35 209,-554 205.49,-557.32 201.61,-560.24 197.48,-562.8"/>
<text text-anchor="middle" x="242" y="-526.6" font-family="Times,serif" font-size="8.00">Ethernet Link</text>
</g>
<!-- CI0Shoulder Camcorder&#45;&#45;Switcher_Shoulder Camcorder -->
<g id="edge35" class="edge">
<title>CI0Shoulder Camcorder&#45;&#45;Switcher_Shoulder Camcorder</title>
<path fill="none" stroke="black" d="M289.22,-472C267.37,-471.08 237.03,-473.71 219,-492 199.41,-511.88 227.67,-533.25 209,-554 206.01,-557.33 202.65,-560.26 199.03,-562.85"/>
<text text-anchor="middle" x="242" y="-494.6" font-family="Times,serif" font-size="8.00">Ethernet Link</text>
</g>
<!-- CI0Shoulder Camcorder&#45;&#45;Switcher_Shoulder Camcorder -->
<g id="edge36" class="edge">
<title>CI0Shoulder Camcorder&#45;&#45;Switcher_Shoulder Camcorder</title>
<path fill="none" stroke="black" d="M289.29,-460.67C267.79,-451.07 237.91,-442.99 219,-460 203.38,-474.05 222.63,-538.01 209,-554 206.21,-557.27 203.07,-560.16 199.67,-562.72"/>
<text text-anchor="middle" x="242" y="-462.6" font-family="Times,serif" font-size="8.00">Ethernet Link</text>
</g>
<!-- PXW&#45;500_1 -->
<g id="node18" class="node">
<title>PXW&#45;500_1</title>
<polygon fill="#e0ffff" stroke="#e0ffff" points="566.5,-457 481.5,-457 481.5,-421 566.5,-421 566.5,-457"/>
<text text-anchor="middle" x="524" y="-435.3" font-family="Times,serif" font-size="14.00">PXW&#45;500_1</text>
</g>
<!-- PXW&#45;500_1&#45;&#45;CI0Shoulder Camcorder -->
<g id="edge14" class="edge">
<title>PXW&#45;500_1&#45;&#45;CI0Shoulder Camcorder</title>
<path fill="none" stroke="black" d="M481.22,-446.23C450.02,-451.64 406.33,-459.25 368,-466 360.11,-467.39 351.52,-468.92 343.71,-470.31"/>
<text text-anchor="middle" x="407.5" y="-468.6" font-family="Times,serif" font-size="8.00">CY&#45;CBL&#45;SONY&#45;8P&#45;03</text>
</g>
<!-- PXW&#45;500_2 -->
<g id="node19" class="node">
<title>PXW&#45;500_2</title>
<polygon fill="#e0ffff" stroke="#e0ffff" points="566.5,-403 481.5,-403 481.5,-367 566.5,-367 566.5,-403"/>
<text text-anchor="middle" x="524" y="-381.3" font-family="Times,serif" font-size="14.00">PXW&#45;500_2</text>
</g>
<!-- PXW&#45;500_2&#45;&#45;CI0Shoulder Camcorder -->
<g id="edge15" class="edge">
<title>PXW&#45;500_2&#45;&#45;CI0Shoulder Camcorder</title>
<path fill="none" stroke="black" d="M481.22,-396.04C449.24,-405.32 404.58,-420.09 368,-439 358.34,-444 348.44,-450.65 340,-456.88"/>
<text text-anchor="middle" x="407.5" y="-441.6" font-family="Times,serif" font-size="8.00">CY&#45;CBL&#45;SONY&#45;8P&#45;03</text>
</g>
<!-- PXW&#45;500_3 -->
<g id="node20" class="node">
<title>PXW&#45;500_3</title>
<polygon fill="#e0ffff" stroke="#e0ffff" points="566.5,-349 481.5,-349 481.5,-313 566.5,-313 566.5,-349"/>
<text text-anchor="middle" x="524" y="-327.3" font-family="Times,serif" font-size="14.00">PXW&#45;500_3</text>
</g>
<!-- PXW&#45;500_3&#45;&#45;CI0Shoulder Camcorder -->
<g id="edge16" class="edge">
<title>PXW&#45;500_3&#45;&#45;CI0Shoulder Camcorder</title>
<path fill="none" stroke="black" d="M481.38,-339.95C447.81,-348.86 400.93,-365.28 368,-393 347.41,-410.33 332.74,-438.3 324.69,-456.67"/>
<text text-anchor="middle" x="407.5" y="-395.6" font-family="Times,serif" font-size="8.00">CY&#45;CBL&#45;SONY&#45;8P&#45;03</text>
</g>
<!-- Alpha 7 Mark 4_0 -->
<g id="node21" class="node">
<title>Alpha 7 Mark 4_0</title>
<polygon fill="#e0ffff" stroke="#e0ffff" points="583,-266 465,-266 465,-230 583,-230 583,-266"/>
<text text-anchor="middle" x="524" y="-244.3" font-family="Times,serif" font-size="14.00">Alpha 7 Mark 4_0</text>
</g>
<!-- PassThruDSLR -->
<g id="node22" class="node">
<title>PassThruDSLR</title>
<polygon fill="#e0ffff" stroke="#e0ffff" points="350,-266 283,-266 283,-230 350,-230 350,-266"/>
<text text-anchor="middle" x="316.5" y="-244.3" font-family="Times,serif" font-size="14.00">PassThru</text>
</g>
<!-- Alpha 7 Mark 4_0&#45;&#45;PassThruDSLR -->
<g id="edge17" class="edge">
<title>Alpha 7 Mark 4_0&#45;&#45;PassThruDSLR</title>
<path fill="none" stroke="black" d="M464.94,-248C427.79,-248 380.96,-248 350.17,-248"/>
<text text-anchor="middle" x="407.5" y="-250.6" font-family="Times,serif" font-size="8.00">USB&#45;A&#45;to&#45;USB&#45;C</text>
</g>
<!-- Switcher_DSLR -->
<g id="node30" class="node">
<title>Switcher_DSLR</title>
<polygon fill="#e0ffff" stroke="#e0ffff" points="161.5,-545 55.5,-545 55.5,-509 161.5,-509 161.5,-545"/>
<text text-anchor="middle" x="108.5" y="-523.3" font-family="Times,serif" font-size="14.00">Switcher_DSLR</text>
</g>
<!-- PassThruDSLR&#45;&#45;Switcher_DSLR -->
<g id="edge37" class="edge">
<title>PassThruDSLR&#45;&#45;Switcher_DSLR</title>
<path fill="none" stroke="black" d="M299.61,-266.29C291.57,-276.14 282.04,-288.75 275,-301 242.43,-357.68 236.69,-374.07 219,-437 211.33,-464.29 227.94,-478.9 209,-500 196.98,-513.39 179.07,-520.42 161.73,-524.03"/>
<text text-anchor="middle" x="242" y="-439.6" font-family="Times,serif" font-size="8.00">Ethernet Link</text>
</g>
<!-- PassThruDSLR&#45;&#45;Switcher_DSLR -->
<g id="edge38" class="edge">
<title>PassThruDSLR&#45;&#45;Switcher_DSLR</title>
<path fill="none" stroke="black" d="M282.69,-258.48C260.62,-267.39 233.08,-282.54 219,-306 196.78,-343.01 236.1,-466.4 209,-500 197.54,-514.21 179.42,-521.38 161.76,-524.87"/>
<text text-anchor="middle" x="242" y="-308.6" font-family="Times,serif" font-size="8.00">Ethernet Link</text>
</g>
<!-- FX3_0 -->
<g id="node23" class="node">
<title>FX3_0</title>
<polygon fill="#e0ffff" stroke="#e0ffff" points="551,-212 497,-212 497,-176 551,-176 551,-212"/>
<text text-anchor="middle" x="524" y="-190.3" font-family="Times,serif" font-size="14.00">FX3_0</text>
</g>
<!-- FX3_0&#45;&#45;PassThruDSLR -->
<g id="edge18" class="edge">
<title>FX3_0&#45;&#45;PassThruDSLR</title>
<path fill="none" stroke="black" d="M496.97,-200.84C459.6,-210.66 390.78,-228.74 350.08,-239.44"/>
<text text-anchor="middle" x="407.5" y="-235.6" font-family="Times,serif" font-size="8.00">USB&#45;A&#45;to&#45;USB&#45;C</text>
</g>
<!-- Burano_0 -->
<g id="node24" class="node">
<title>Burano_0</title>
<polygon fill="#e0ffff" stroke="#e0ffff" points="559,-129 489,-129 489,-93 559,-93 559,-129"/>
<text text-anchor="middle" x="524" y="-107.3" font-family="Times,serif" font-size="14.00">Burano_0</text>
</g>
<!-- RIOLarge Sensor -->
<g id="node25" class="node">
<title>RIOLarge Sensor</title>
<polygon fill="#e0ffff" stroke="#e0ffff" points="343.5,-129 289.5,-129 289.5,-93 343.5,-93 343.5,-129"/>
<text text-anchor="middle" x="316.5" y="-107.3" font-family="Times,serif" font-size="14.00">RIO</text>
</g>
<!-- Burano_0&#45;&#45;RIOLarge Sensor -->
<g id="edge19" class="edge">
<title>Burano_0&#45;&#45;RIOLarge Sensor</title>
<path fill="none" stroke="black" d="M488.6,-111C447.7,-111 380.34,-111 343.53,-111"/>
<text text-anchor="middle" x="407.5" y="-113.6" font-family="Times,serif" font-size="8.00">Ethernet&#45;RJ45</text>
</g>
<!-- Switcher_Large Sensor -->
<g id="node31" class="node">
<title>Switcher_Large Sensor</title>
<polygon fill="#e0ffff" stroke="#e0ffff" points="180,-491 37,-491 37,-455 180,-455 180,-491"/>
<text text-anchor="middle" x="108.5" y="-469.3" font-family="Times,serif" font-size="14.00">Switcher_Large Sensor</text>
</g>
<!-- RIOLarge Sensor&#45;&#45;Switcher_Large Sensor -->
<g id="edge39" class="edge">
<title>RIOLarge Sensor&#45;&#45;Switcher_Large Sensor</title>
<path fill="none" stroke="black" d="M300.81,-129.32C292.92,-139.38 283.16,-152.19 275,-164 203.4,-267.64 139.38,-405.71 117.5,-454.76"/>
<text text-anchor="middle" x="242" y="-247.6" font-family="Times,serif" font-size="8.00">Ethernet Link</text>
</g>
<!-- RIOLarge Sensor&#45;&#45;Switcher_Large Sensor -->
<g id="edge40" class="edge">
<title>RIOLarge Sensor&#45;&#45;Switcher_Large Sensor</title>
<path fill="none" stroke="black" d="M289.13,-120.08C267.52,-128.76 237.58,-143.83 219,-166 143.02,-256.63 118.12,-403.9 111.53,-454.92"/>
<text text-anchor="middle" x="242" y="-168.6" font-family="Times,serif" font-size="8.00">Ethernet Link</text>
</g>
<!-- Burano_1 -->
<g id="node26" class="node">
<title>Burano_1</title>
<polygon fill="#e0ffff" stroke="#e0ffff" points="559,-75 489,-75 489,-39 559,-39 559,-75"/>
<text text-anchor="middle" x="524" y="-53.3" font-family="Times,serif" font-size="14.00">Burano_1</text>
</g>
<!-- Burano_1&#45;&#45;RIOLarge Sensor -->
<g id="edge20" class="edge">
<title>Burano_1&#45;&#45;RIOLarge Sensor</title>
<path fill="none" stroke="black" d="M488.6,-66.04C447.7,-76.79 380.34,-94.49 343.53,-104.16"/>
<text text-anchor="middle" x="407.5" y="-98.6" font-family="Times,serif" font-size="8.00">Ethernet&#45;RJ45</text>
</g>
</g>
</svg>
