<?xml version="1.0" encoding="UTF-8" standalone="no"?>
<!DOCTYPE svg PUBLIC "-//W3C//DTD SVG 1.1//EN"
 "http://www.w3.org/Graphics/SVG/1.1/DTD/svg11.dtd">
<!-- Generated by graphviz version 2.50.0 (0)
 -->
<!-- Title: cluster_Cyanview Pages: 1 -->
<svg width="263pt" height="432pt"
 viewBox="0.00 0.00 262.72 432.00" xmlns="http://www.w3.org/2000/svg" xmlns:xlink="http://www.w3.org/1999/xlink">
<g id="graph0" class="graph" transform="scale(0.34 0.34) rotate(0) translate(4 1272)">
<title>cluster_Cyanview</title>
<polygon fill="white" stroke="transparent" points="-4,4 -4,-1272 772,-1272 772,4 -4,4"/>
<text text-anchor="middle" x="384" y="-7.8" font-family="Times,serif" font-size="14.00">Cyanview Gear</text>
<g id="clust1" class="cluster">
<title>cluster_Mini Camera</title>
<polygon fill="lightyellow" stroke="lightyellow" points="449.5,-31 449.5,-376 753,-376 753,-31 449.5,-31"/>
<text text-anchor="middle" x="601.25" y="-360.8" font-family="Times,serif" font-size="14.00">Mini Camera</text>
</g>
<g id="clust2" class="cluster">
<title>cluster_PTZ</title>
<polygon fill="lightyellow" stroke="lightyellow" points="443,-384 443,-729 748.5,-729 748.5,-384 443,-384"/>
<text text-anchor="middle" x="595.75" y="-713.8" font-family="Times,serif" font-size="14.00">PTZ</text>
</g>
<g id="clust3" class="cluster">
<title>cluster_Shoulder Camcorder</title>
<polygon fill="lightyellow" stroke="lightyellow" points="442,-737 442,-974 743.5,-974 743.5,-737 442,-737"/>
<text text-anchor="middle" x="592.75" y="-958.8" font-family="Times,serif" font-size="14.00">Shoulder Camcorder</text>
</g>
<g id="clust4" class="cluster">
<title>cluster_DSLR</title>
<polygon fill="lightyellow" stroke="lightyellow" points="443,-982 443,-1111 760,-1111 760,-982 443,-982"/>
<text text-anchor="middle" x="601.5" y="-1095.8" font-family="Times,serif" font-size="14.00">DSLR</text>
</g>
<g id="clust5" class="cluster">
<title>cluster_Large Sensor</title>
<polygon fill="lightyellow" stroke="lightyellow" points="449.5,-1131 449.5,-1260 736,-1260 736,-1131 449.5,-1131"/>
<text text-anchor="middle" x="592.75" y="-1244.8" font-family="Times,serif" font-size="14.00">Large Sensor</text>
</g>
<!-- AtomOne 4K_0 -->
<g id="node1" class="node">
<title>AtomOne 4K_0</title>
<polygon fill="#e0ffff" stroke="#e0ffff" points="745,-345 641,-345 641,-309 745,-309 745,-345"/>
<text text-anchor="middle" x="693" y="-323.3" font-family="Times,serif" font-size="14.00">AtomOne 4K_0</text>
</g>
<!-- CI0_0 -->
<g id="node2" class="node">
<title>CI0_0</title>
<polygon fill="#e0ffff" stroke="#e0ffff" points="511.5,-291 457.5,-291 457.5,-255 511.5,-255 511.5,-291"/>
<text text-anchor="middle" x="484.5" y="-269.3" font-family="Times,serif" font-size="14.00">CI0</text>
</g>
<!-- AtomOne 4K_0&#45;&#45;CI0_0 -->
<g id="edge1" class="edge">
<title>AtomOne 4K_0:w&#45;&#45;CI0_0:e</title>
<path fill="none" stroke="black" d="M640,-327C590.89,-327 581.33,-308.13 537,-287 525.68,-281.6 525.04,-273 512.5,-273"/>
<text text-anchor="middle" x="576.5" y="-326.6" font-family="Times,serif" font-size="8.00">CY&#45;CBL&#45;6P&#45;DCHIP&#45;02</text>
</g>
<!-- Mini Camera Switch -->
<g id="node34" class="node">
<title>Mini Camera Switch</title>
<polygon fill="#e0ffff" stroke="#e0ffff" points="348,-210 217,-210 217,-174 348,-174 348,-210"/>
<text text-anchor="middle" x="282.5" y="-188.3" font-family="Times,serif" font-size="14.00">Mini Camera Switch</text>
</g>
<!-- CI0_0&#45;&#45;Mini Camera Switch -->
<g id="edge21" class="edge">
<title>CI0_0:w&#45;&#45;Mini Camera Switch:e</title>
<path fill="none" stroke="black" d="M456.5,-273C396.85,-273 409.15,-192 349.5,-192"/>
<text text-anchor="middle" x="409" y="-269.6" font-family="Times,serif" font-size="8.00">Ethernet Link</text>
</g>
<!-- AtomOne 4K_1 -->
<g id="node3" class="node">
<title>AtomOne 4K_1</title>
<polygon fill="#e0ffff" stroke="#e0ffff" points="745,-291 641,-291 641,-255 745,-255 745,-291"/>
<text text-anchor="middle" x="693" y="-269.3" font-family="Times,serif" font-size="14.00">AtomOne 4K_1</text>
</g>
<!-- AtomOne 4K_1&#45;&#45;CI0_0 -->
<g id="edge2" class="edge">
<title>AtomOne 4K_1:w&#45;&#45;CI0_0:e</title>
<path fill="none" stroke="black" d="M640,-273C583.33,-273 569.17,-273 512.5,-273"/>
<text text-anchor="middle" x="576.5" y="-276.6" font-family="Times,serif" font-size="8.00">CY&#45;CBL&#45;6P&#45;DCHIP&#45;02</text>
</g>
<!-- AtomOne 4K_2 -->
<g id="node4" class="node">
<title>AtomOne 4K_2</title>
<polygon fill="#e0ffff" stroke="#e0ffff" points="745,-237 641,-237 641,-201 745,-201 745,-237"/>
<text text-anchor="middle" x="693" y="-215.3" font-family="Times,serif" font-size="14.00">AtomOne 4K_2</text>
</g>
<!-- CI0_1 -->
<g id="node5" class="node">
<title>CI0_1</title>
<polygon fill="#e0ffff" stroke="#e0ffff" points="511.5,-210 457.5,-210 457.5,-174 511.5,-174 511.5,-210"/>
<text text-anchor="middle" x="484.5" y="-188.3" font-family="Times,serif" font-size="14.00">CI0</text>
</g>
<!-- AtomOne 4K_2&#45;&#45;CI0_1 -->
<g id="edge3" class="edge">
<title>AtomOne 4K_2:w&#45;&#45;CI0_1:e</title>
<path fill="none" stroke="black" d="M640,-219C582.08,-219 570.42,-192 512.5,-192"/>
<text text-anchor="middle" x="576.5" y="-220.6" font-family="Times,serif" font-size="8.00">CY&#45;CBL&#45;6P&#45;DCHIP&#45;02</text>
</g>
<!-- CI0_1&#45;&#45;Mini Camera Switch -->
<g id="edge22" class="edge">
<title>CI0_1:w&#45;&#45;Mini Camera Switch:e</title>
<path fill="none" stroke="black" d="M456.5,-192C408.94,-192 397.06,-192 349.5,-192"/>
<text text-anchor="middle" x="409" y="-194.6" font-family="Times,serif" font-size="8.00">Ethernet Link</text>
</g>
<!-- AtomOne 4K_3 -->
<g id="node6" class="node">
<title>AtomOne 4K_3</title>
<polygon fill="#e0ffff" stroke="#e0ffff" points="745,-183 641,-183 641,-147 745,-147 745,-183"/>
<text text-anchor="middle" x="693" y="-161.3" font-family="Times,serif" font-size="14.00">AtomOne 4K_3</text>
</g>
<!-- AtomOne 4K_3&#45;&#45;CI0_1 -->
<g id="edge4" class="edge">
<title>AtomOne 4K_3:w&#45;&#45;CI0_1:e</title>
<path fill="none" stroke="black" d="M640,-165C593.67,-165 581.42,-167.84 537,-181 525.56,-184.39 524.44,-192 512.5,-192"/>
<text text-anchor="middle" x="576.5" y="-183.6" font-family="Times,serif" font-size="8.00">CY&#45;CBL&#45;6P&#45;DCHIP&#45;02</text>
</g>
<!-- CV225_0 -->
<g id="node7" class="node">
<title>CV225_0</title>
<polygon fill="#e0ffff" stroke="#e0ffff" points="727.5,-129 658.5,-129 658.5,-93 727.5,-93 727.5,-129"/>
<text text-anchor="middle" x="693" y="-107.3" font-family="Times,serif" font-size="14.00">CV225_0</text>
</g>
<!-- CI0_2 -->
<g id="node8" class="node">
<title>CI0_2</title>
<polygon fill="#e0ffff" stroke="#e0ffff" points="511.5,-129 457.5,-129 457.5,-93 511.5,-93 511.5,-129"/>
<text text-anchor="middle" x="484.5" y="-107.3" font-family="Times,serif" font-size="14.00">CI0</text>
</g>
<!-- CV225_0&#45;&#45;CI0_2 -->
<g id="edge5" class="edge">
<title>CV225_0:w&#45;&#45;CI0_2:e</title>
<path fill="none" stroke="black" d="M657,-111C592.78,-111 576.72,-111 512.5,-111"/>
<text text-anchor="middle" x="576.5" y="-113.6" font-family="Times,serif" font-size="8.00">CY&#45;CBL&#45;6P&#45;PFAN</text>
</g>
<!-- CI0_2&#45;&#45;Mini Camera Switch -->
<g id="edge23" class="edge">
<title>CI0_2:w&#45;&#45;Mini Camera Switch:e</title>
<path fill="none" stroke="black" d="M456.5,-111C396.85,-111 409.15,-192 349.5,-192"/>
<text text-anchor="middle" x="409" y="-177.6" font-family="Times,serif" font-size="8.00">Ethernet Link</text>
</g>
<!-- CV225_1 -->
<g id="node9" class="node">
<title>CV225_1</title>
<polygon fill="#e0ffff" stroke="#e0ffff" points="727.5,-75 658.5,-75 658.5,-39 727.5,-39 727.5,-75"/>
<text text-anchor="middle" x="693" y="-53.3" font-family="Times,serif" font-size="14.00">CV225_1</text>
</g>
<!-- CV225_1&#45;&#45;CI0_2 -->
<g id="edge6" class="edge">
<title>CV225_1:w&#45;&#45;CI0_2:e</title>
<path fill="none" stroke="black" d="M657,-57C600.64,-57 588.72,-75.61 537,-98 525.69,-102.9 524.83,-111 512.5,-111"/>
<text text-anchor="middle" x="576.5" y="-100.6" font-family="Times,serif" font-size="8.00">CY&#45;CBL&#45;6P&#45;PFAN</text>
</g>
<!-- AW&#45;HE130_0 -->
<g id="node10" class="node">
<title>AW&#45;HE130_0</title>
<polygon fill="#e0ffff" stroke="#e0ffff" points="740.5,-698 645.5,-698 645.5,-662 740.5,-662 740.5,-698"/>
<text text-anchor="middle" x="693" y="-676.3" font-family="Times,serif" font-size="14.00">AW&#45;HE130_0</text>
</g>
<!-- PassThru_1 -->
<g id="node11" class="node">
<title>PassThru_1</title>
<polygon fill="#e0ffff" stroke="#e0ffff" points="518,-590 451,-590 451,-554 518,-554 518,-590"/>
<text text-anchor="middle" x="484.5" y="-568.3" font-family="Times,serif" font-size="14.00">PassThru</text>
</g>
<!-- AW&#45;HE130_0&#45;&#45;PassThru_1 -->
<g id="edge7" class="edge">
<title>AW&#45;HE130_0:w&#45;&#45;PassThru_1:e</title>
<path fill="none" stroke="black" d="M644,-680C592.58,-680 571.19,-674.4 537,-636 517.35,-613.93 548.55,-572 519,-572"/>
<text text-anchor="middle" x="576.5" y="-680.6" font-family="Times,serif" font-size="8.00">Ethernet&#45;RJ45</text>
</g>
<!-- PTZ Switch -->
<g id="node35" class="node">
<title>PTZ Switch</title>
<polygon fill="#e0ffff" stroke="#e0ffff" points="323.5,-482 241.5,-482 241.5,-446 323.5,-446 323.5,-482"/>
<text text-anchor="middle" x="282.5" y="-460.3" font-family="Times,serif" font-size="14.00">PTZ Switch</text>
</g>
<!-- PassThru_1&#45;&#45;PTZ Switch -->
<g id="edge24" class="edge">
<title>PassThru_1:w&#45;&#45;PTZ Switch:e</title>
<path fill="none" stroke="black" d="M449.5,-572C376.08,-572 397.92,-464 324.5,-464"/>
<text text-anchor="middle" x="409" y="-570.6" font-family="Times,serif" font-size="8.00">Ethernet Link</text>
</g>
<!-- AW&#45;HE130_1 -->
<g id="node12" class="node">
<title>AW&#45;HE130_1</title>
<polygon fill="#e0ffff" stroke="#e0ffff" points="740.5,-644 645.5,-644 645.5,-608 740.5,-608 740.5,-644"/>
<text text-anchor="middle" x="693" y="-622.3" font-family="Times,serif" font-size="14.00">AW&#45;HE130_1</text>
</g>
<!-- AW&#45;HE130_1&#45;&#45;PassThru_1 -->
<g id="edge8" class="edge">
<title>AW&#45;HE130_1:w&#45;&#45;PassThru_1:e</title>
<path fill="none" stroke="black" d="M644,-626C593.07,-626 581.8,-609.22 537,-585 528.32,-580.31 528.87,-572 519,-572"/>
<text text-anchor="middle" x="576.5" y="-625.6" font-family="Times,serif" font-size="8.00">Ethernet&#45;RJ45</text>
</g>
<!-- AW&#45;HE130_2 -->
<g id="node13" class="node">
<title>AW&#45;HE130_2</title>
<polygon fill="#e0ffff" stroke="#e0ffff" points="740.5,-590 645.5,-590 645.5,-554 740.5,-554 740.5,-590"/>
<text text-anchor="middle" x="693" y="-568.3" font-family="Times,serif" font-size="14.00">AW&#45;HE130_2</text>
</g>
<!-- AW&#45;HE130_2&#45;&#45;PassThru_1 -->
<g id="edge9" class="edge">
<title>AW&#45;HE130_2:w&#45;&#45;PassThru_1:e</title>
<path fill="none" stroke="black" d="M644,-572C588.44,-572 574.56,-572 519,-572"/>
<text text-anchor="middle" x="576.5" y="-574.6" font-family="Times,serif" font-size="8.00">Ethernet&#45;RJ45</text>
</g>
<!-- AW&#45;HE130_3 -->
<g id="node14" class="node">
<title>AW&#45;HE130_3</title>
<polygon fill="#e0ffff" stroke="#e0ffff" points="740.5,-536 645.5,-536 645.5,-500 740.5,-500 740.5,-536"/>
<text text-anchor="middle" x="693" y="-514.3" font-family="Times,serif" font-size="14.00">AW&#45;HE130_3</text>
</g>
<!-- AW&#45;HE130_3&#45;&#45;PassThru_1 -->
<g id="edge10" class="edge">
<title>AW&#45;HE130_3:w&#45;&#45;PassThru_1:e</title>
<path fill="none" stroke="black" d="M644,-518C593.07,-518 581.8,-534.78 537,-559 528.32,-563.69 528.87,-572 519,-572"/>
<text text-anchor="middle" x="576.5" y="-561.6" font-family="Times,serif" font-size="8.00">Ethernet&#45;RJ45</text>
</g>
<!-- BRC&#45;H800_0 -->
<g id="node15" class="node">
<title>BRC&#45;H800_0</title>
<polygon fill="#e0ffff" stroke="#e0ffff" points="739,-482 647,-482 647,-446 739,-446 739,-482"/>
<text text-anchor="middle" x="693" y="-460.3" font-family="Times,serif" font-size="14.00">BRC&#45;H800_0</text>
</g>
<!-- RIO_1 -->
<g id="node16" class="node">
<title>RIO_1</title>
<polygon fill="#e0ffff" stroke="#e0ffff" points="511.5,-482 457.5,-482 457.5,-446 511.5,-446 511.5,-482"/>
<text text-anchor="middle" x="484.5" y="-460.3" font-family="Times,serif" font-size="14.00">RIO</text>
</g>
<!-- BRC&#45;H800_0&#45;&#45;RIO_1 -->
<g id="edge11" class="edge">
<title>BRC&#45;H800_0:w&#45;&#45;RIO_1:e</title>
<path fill="none" stroke="black" d="M646,-464C586.67,-464 571.83,-464 512.5,-464"/>
<text text-anchor="middle" x="576.5" y="-466.6" font-family="Times,serif" font-size="8.00">Ethernet&#45;RJ45</text>
</g>
<!-- RIO_1&#45;&#45;PTZ Switch -->
<g id="edge25" class="edge">
<title>RIO_1:w&#45;&#45;PTZ Switch:e</title>
<path fill="none" stroke="black" d="M456.5,-464C397.83,-464 383.17,-464 324.5,-464"/>
<text text-anchor="middle" x="409" y="-466.6" font-family="Times,serif" font-size="8.00">Ethernet Link</text>
</g>
<!-- BRC&#45;H800_1 -->
<g id="node17" class="node">
<title>BRC&#45;H800_1</title>
<polygon fill="#e0ffff" stroke="#e0ffff" points="739,-428 647,-428 647,-392 739,-392 739,-428"/>
<text text-anchor="middle" x="693" y="-406.3" font-family="Times,serif" font-size="14.00">BRC&#45;H800_1</text>
</g>
<!-- RIO_2 -->
<g id="node18" class="node">
<title>RIO_2</title>
<polygon fill="#e0ffff" stroke="#e0ffff" points="511.5,-428 457.5,-428 457.5,-392 511.5,-392 511.5,-428"/>
<text text-anchor="middle" x="484.5" y="-406.3" font-family="Times,serif" font-size="14.00">RIO</text>
</g>
<!-- BRC&#45;H800_1&#45;&#45;RIO_2 -->
<g id="edge12" class="edge">
<title>BRC&#45;H800_1:w&#45;&#45;RIO_2:e</title>
<path fill="none" stroke="black" d="M646,-410C586.67,-410 571.83,-410 512.5,-410"/>
<text text-anchor="middle" x="576.5" y="-412.6" font-family="Times,serif" font-size="8.00">Ethernet&#45;RJ45</text>
</g>
<!-- RIO_2&#45;&#45;PTZ Switch -->
<g id="edge26" class="edge">
<title>RIO_2:w&#45;&#45;PTZ Switch:e</title>
<path fill="none" stroke="black" d="M456.5,-410C393.11,-410 387.89,-464 324.5,-464"/>
<text text-anchor="middle" x="409" y="-442.6" font-family="Times,serif" font-size="8.00">Ethernet Link</text>
</g>
<!-- PXW&#45;500_0 -->
<g id="node19" class="node">
<title>PXW&#45;500_0</title>
<polygon fill="#e0ffff" stroke="#e0ffff" points="735.5,-943 650.5,-943 650.5,-907 735.5,-907 735.5,-943"/>
<text text-anchor="middle" x="693" y="-921.3" font-family="Times,serif" font-size="14.00">PXW&#45;500_0</text>
</g>
<!-- RIO&#45;Live_2 -->
<g id="node20" class="node">
<title>RIO&#45;Live_2</title>
<polygon fill="#e0ffff" stroke="#e0ffff" points="519,-943 450,-943 450,-907 519,-907 519,-943"/>
<text text-anchor="middle" x="484.5" y="-921.3" font-family="Times,serif" font-size="14.00">RIO&#45;Live</text>
</g>
<!-- PXW&#45;500_0&#45;&#45;RIO&#45;Live_2 -->
<g id="edge13" class="edge">
<title>PXW&#45;500_0:w&#45;&#45;RIO&#45;Live_2:e</title>
<path fill="none" stroke="black" d="M649,-925C591.22,-925 576.78,-925 519,-925"/>
<text text-anchor="middle" x="576.5" y="-927.6" font-family="Times,serif" font-size="8.00">CY&#45;CBL&#45;SONY&#45;8P&#45;03</text>
</g>
<!-- Shoulder Camcorder Switch -->
<g id="node36" class="node">
<title>Shoulder Camcorder Switch</title>
<polygon fill="#e0ffff" stroke="#e0ffff" points="368,-859 197,-859 197,-823 368,-823 368,-859"/>
<text text-anchor="middle" x="282.5" y="-837.3" font-family="Times,serif" font-size="14.00">Shoulder Camcorder Switch</text>
</g>
<!-- RIO&#45;Live_2&#45;&#45;Shoulder Camcorder Switch -->
<g id="edge27" class="edge">
<title>RIO&#45;Live_2:w&#45;&#45;Shoulder Camcorder Switch:e</title>
<path fill="none" stroke="black" d="M448.5,-925C414.53,-925 407.63,-907.2 386,-881 373.59,-865.97 387.49,-841 368,-841"/>
<text text-anchor="middle" x="409" y="-924.6" font-family="Times,serif" font-size="8.00">Ethernet Link</text>
</g>
<!-- PXW&#45;500_1 -->
<g id="node21" class="node">
<title>PXW&#45;500_1</title>
<polygon fill="#e0ffff" stroke="#e0ffff" points="735.5,-889 650.5,-889 650.5,-853 735.5,-853 735.5,-889"/>
<text text-anchor="middle" x="693" y="-867.3" font-family="Times,serif" font-size="14.00">PXW&#45;500_1</text>
</g>
<!-- RIO&#45;Live_3 -->
<g id="node22" class="node">
<title>RIO&#45;Live_3</title>
<polygon fill="#e0ffff" stroke="#e0ffff" points="519,-889 450,-889 450,-853 519,-853 519,-889"/>
<text text-anchor="middle" x="484.5" y="-867.3" font-family="Times,serif" font-size="14.00">RIO&#45;Live</text>
</g>
<!-- PXW&#45;500_1&#45;&#45;RIO&#45;Live_3 -->
<g id="edge14" class="edge">
<title>PXW&#45;500_1:w&#45;&#45;RIO&#45;Live_3:e</title>
<path fill="none" stroke="black" d="M649,-871C591.22,-871 576.78,-871 519,-871"/>
<text text-anchor="middle" x="576.5" y="-873.6" font-family="Times,serif" font-size="8.00">CY&#45;CBL&#45;SONY&#45;8P&#45;03</text>
</g>
<!-- RIO&#45;Live_3&#45;&#45;Shoulder Camcorder Switch -->
<g id="edge28" class="edge">
<title>RIO&#45;Live_3:w&#45;&#45;Shoulder Camcorder Switch:e</title>
<path fill="none" stroke="black" d="M448.5,-871C410.32,-871 406.18,-841 368,-841"/>
<text text-anchor="middle" x="409" y="-870.6" font-family="Times,serif" font-size="8.00">Ethernet Link</text>
</g>
<!-- PXW&#45;500_2 -->
<g id="node23" class="node">
<title>PXW&#45;500_2</title>
<polygon fill="#e0ffff" stroke="#e0ffff" points="735.5,-835 650.5,-835 650.5,-799 735.5,-799 735.5,-835"/>
<text text-anchor="middle" x="693" y="-813.3" font-family="Times,serif" font-size="14.00">PXW&#45;500_2</text>
</g>
<!-- RIO&#45;Live_4 -->
<g id="node24" class="node">
<title>RIO&#45;Live_4</title>
<polygon fill="#e0ffff" stroke="#e0ffff" points="519,-835 450,-835 450,-799 519,-799 519,-835"/>
<text text-anchor="middle" x="484.5" y="-813.3" font-family="Times,serif" font-size="14.00">RIO&#45;Live</text>
</g>
<!-- PXW&#45;500_2&#45;&#45;RIO&#45;Live_4 -->
<g id="edge15" class="edge">
<title>PXW&#45;500_2:w&#45;&#45;RIO&#45;Live_4:e</title>
<path fill="none" stroke="black" d="M649,-817C591.22,-817 576.78,-817 519,-817"/>
<text text-anchor="middle" x="576.5" y="-819.6" font-family="Times,serif" font-size="8.00">CY&#45;CBL&#45;SONY&#45;8P&#45;03</text>
</g>
<!-- RIO&#45;Live_4&#45;&#45;Shoulder Camcorder Switch -->
<g id="edge29" class="edge">
<title>RIO&#45;Live_4:w&#45;&#45;Shoulder Camcorder Switch:e</title>
<path fill="none" stroke="black" d="M448.5,-817C420.21,-817 412.17,-818.28 386,-829 377.1,-832.65 377.61,-841 368,-841"/>
<text text-anchor="middle" x="409" y="-831.6" font-family="Times,serif" font-size="8.00">Ethernet Link</text>
</g>
<!-- PXW&#45;500_3 -->
<g id="node25" class="node">
<title>PXW&#45;500_3</title>
<polygon fill="#e0ffff" stroke="#e0ffff" points="735.5,-781 650.5,-781 650.5,-745 735.5,-745 735.5,-781"/>
<text text-anchor="middle" x="693" y="-759.3" font-family="Times,serif" font-size="14.00">PXW&#45;500_3</text>
</g>
<!-- RIO&#45;Live_5 -->
<g id="node26" class="node">
<title>RIO&#45;Live_5</title>
<polygon fill="#e0ffff" stroke="#e0ffff" points="519,-781 450,-781 450,-745 519,-745 519,-781"/>
<text text-anchor="middle" x="484.5" y="-759.3" font-family="Times,serif" font-size="14.00">RIO&#45;Live</text>
</g>
<!-- PXW&#45;500_3&#45;&#45;RIO&#45;Live_5 -->
<g id="edge16" class="edge">
<title>PXW&#45;500_3:w&#45;&#45;RIO&#45;Live_5:e</title>
<path fill="none" stroke="black" d="M649,-763C591.22,-763 576.78,-763 519,-763"/>
<text text-anchor="middle" x="576.5" y="-765.6" font-family="Times,serif" font-size="8.00">CY&#45;CBL&#45;SONY&#45;8P&#45;03</text>
</g>
<!-- RIO&#45;Live_5&#45;&#45;Shoulder Camcorder Switch -->
<g id="edge30" class="edge">
<title>RIO&#45;Live_5:w&#45;&#45;Shoulder Camcorder Switch:e</title>
<path fill="none" stroke="black" d="M448.5,-763C415.28,-763 407.94,-779.06 386,-804 373.92,-817.73 386.29,-841 368,-841"/>
<text text-anchor="middle" x="409" y="-806.6" font-family="Times,serif" font-size="8.00">Ethernet Link</text>
</g>
<!-- Alpha 7 Mark 4_0 -->
<g id="node27" class="node">
<title>Alpha 7 Mark 4_0</title>
<polygon fill="#e0ffff" stroke="#e0ffff" points="752,-1080 634,-1080 634,-1044 752,-1044 752,-1080"/>
<text text-anchor="middle" x="693" y="-1058.3" font-family="Times,serif" font-size="14.00">Alpha 7 Mark 4_0</text>
</g>
<!-- PassThru_3 -->
<g id="node28" class="node">
<title>PassThru_3</title>
<polygon fill="#e0ffff" stroke="#e0ffff" points="518,-1071 451,-1071 451,-1035 518,-1035 518,-1071"/>
<text text-anchor="middle" x="484.5" y="-1049.3" font-family="Times,serif" font-size="14.00">PassThru</text>
</g>
<!-- Alpha 7 Mark 4_0&#45;&#45;PassThru_3 -->
<g id="edge17" class="edge">
<title>Alpha 7 Mark 4_0:w&#45;&#45;PassThru_3:e</title>
<path fill="none" stroke="black" d="M634,-1062C582.73,-1062 570.27,-1053 519,-1053"/>
<text text-anchor="middle" x="576.5" y="-1063.6" font-family="Times,serif" font-size="8.00">USB&#45;A&#45;to&#45;USB&#45;C</text>
</g>
<!-- DSLR Switch -->
<g id="node37" class="node">
<title>DSLR Switch</title>
<polygon fill="#e0ffff" stroke="#e0ffff" points="328.5,-1071 236.5,-1071 236.5,-1035 328.5,-1035 328.5,-1071"/>
<text text-anchor="middle" x="282.5" y="-1049.3" font-family="Times,serif" font-size="14.00">DSLR Switch</text>
</g>
<!-- PassThru_3&#45;&#45;DSLR Switch -->
<g id="edge31" class="edge">
<title>PassThru_3:w&#45;&#45;DSLR Switch:e</title>
<path fill="none" stroke="black" d="M449.5,-1053C396.17,-1053 382.83,-1053 329.5,-1053"/>
<text text-anchor="middle" x="409" y="-1055.6" font-family="Times,serif" font-size="8.00">Ethernet Link</text>
</g>
<!-- FX3_0 -->
<g id="node29" class="node">
<title>FX3_0</title>
<polygon fill="#e0ffff" stroke="#e0ffff" points="720,-1026 666,-1026 666,-990 720,-990 720,-1026"/>
<text text-anchor="middle" x="693" y="-1004.3" font-family="Times,serif" font-size="14.00">FX3_0</text>
</g>
<!-- FX3_0&#45;&#45;PassThru_3 -->
<g id="edge18" class="edge">
<title>FX3_0:w&#45;&#45;PassThru_3:e</title>
<path fill="none" stroke="black" d="M665,-1008C606.36,-1008 590.17,-1015.28 537,-1040 528.05,-1044.16 528.87,-1053 519,-1053"/>
<text text-anchor="middle" x="576.5" y="-1042.6" font-family="Times,serif" font-size="8.00">USB&#45;A&#45;to&#45;USB&#45;C</text>
</g>
<!-- Burano_0 -->
<g id="node30" class="node">
<title>Burano_0</title>
<polygon fill="#e0ffff" stroke="#e0ffff" points="728,-1229 658,-1229 658,-1193 728,-1193 728,-1229"/>
<text text-anchor="middle" x="693" y="-1207.3" font-family="Times,serif" font-size="14.00">Burano_0</text>
</g>
<!-- RIO_5 -->
<g id="node31" class="node">
<title>RIO_5</title>
<polygon fill="#e0ffff" stroke="#e0ffff" points="511.5,-1229 457.5,-1229 457.5,-1193 511.5,-1193 511.5,-1229"/>
<text text-anchor="middle" x="484.5" y="-1207.3" font-family="Times,serif" font-size="14.00">RIO</text>
</g>
<!-- Burano_0&#45;&#45;RIO_5 -->
<g id="edge19" class="edge">
<title>Burano_0:w&#45;&#45;RIO_5:e</title>
<path fill="none" stroke="black" d="M657,-1211C592.78,-1211 576.72,-1211 512.5,-1211"/>
<text text-anchor="middle" x="576.5" y="-1213.6" font-family="Times,serif" font-size="8.00">Ethernet&#45;RJ45</text>
</g>
<!-- Large Sensor Switch -->
<g id="node38" class="node">
<title>Large Sensor Switch</title>
<polygon fill="#e0ffff" stroke="#e0ffff" points="347.5,-1199 217.5,-1199 217.5,-1163 347.5,-1163 347.5,-1199"/>
<text text-anchor="middle" x="282.5" y="-1177.3" font-family="Times,serif" font-size="14.00">Large Sensor Switch</text>
</g>
<!-- RIO_5&#45;&#45;Large Sensor Switch -->
<g id="edge32" class="edge">
<title>RIO_5:w&#45;&#45;Large Sensor Switch:e</title>
<path fill="none" stroke="black" d="M456.5,-1211C406.68,-1211 398.32,-1181 348.5,-1181"/>
<text text-anchor="middle" x="409" y="-1209.6" font-family="Times,serif" font-size="8.00">Ethernet Link</text>
</g>
<!-- Burano_1 -->
<g id="node32" class="node">
<title>Burano_1</title>
<polygon fill="#e0ffff" stroke="#e0ffff" points="728,-1175 658,-1175 658,-1139 728,-1139 728,-1175"/>
<text text-anchor="middle" x="693" y="-1153.3" font-family="Times,serif" font-size="14.00">Burano_1</text>
</g>
<!-- RIO_6 -->
<g id="node33" class="node">
<title>RIO_6</title>
<polygon fill="#e0ffff" stroke="#e0ffff" points="511.5,-1175 457.5,-1175 457.5,-1139 511.5,-1139 511.5,-1175"/>
<text text-anchor="middle" x="484.5" y="-1153.3" font-family="Times,serif" font-size="14.00">RIO</text>
</g>
<!-- Burano_1&#45;&#45;RIO_6 -->
<g id="edge20" class="edge">
<title>Burano_1:w&#45;&#45;RIO_6:e</title>
<path fill="none" stroke="black" d="M657,-1157C592.78,-1157 576.72,-1157 512.5,-1157"/>
<text text-anchor="middle" x="576.5" y="-1159.6" font-family="Times,serif" font-size="8.00">Ethernet&#45;RJ45</text>
</g>
<!-- RIO_6&#45;&#45;Large Sensor Switch -->
<g id="edge33" class="edge">
<title>RIO_6:w&#45;&#45;Large Sensor Switch:e</title>
<path fill="none" stroke="black" d="M456.5,-1157C431.91,-1157 373.09,-1181 348.5,-1181"/>
<text text-anchor="middle" x="409" y="-1175.6" font-family="Times,serif" font-size="8.00">Ethernet Link</text>
</g>
<!-- CY&#45;RCP&#45;OCTO_0 -->
<g id="node39" class="node">
<title>CY&#45;RCP&#45;OCTO_0</title>
<polygon fill="#e0ffff" stroke="#e0ffff" points="110,-210 5,-210 5,-174 110,-174 110,-210"/>
<text text-anchor="middle" x="57.5" y="-188.3" font-family="Times,serif" font-size="14.00">CY&#45;RCP&#45;OCTO</text>
</g>
<!-- Mini Camera Switch&#45;&#45;CY&#45;RCP&#45;OCTO_0 -->
<g id="edge34" class="edge">
<title>Mini Camera Switch:w&#45;&#45;CY&#45;RCP&#45;OCTO_0:e</title>
<path fill="none" stroke="black" d="M215.5,-192C169.28,-192 157.72,-192 111.5,-192"/>
<text text-anchor="middle" x="156" y="-194.6" font-family="Times,serif" font-size="8.00">Ethernet Link</text>
</g>
<!-- CY&#45;RCP&#45;OCTO&#45;J_0 -->
<g id="node40" class="node">
<title>CY&#45;RCP&#45;OCTO&#45;J_0</title>
<polygon fill="#e0ffff" stroke="#e0ffff" points="115,-482 0,-482 0,-446 115,-446 115,-482"/>
<text text-anchor="middle" x="57.5" y="-460.3" font-family="Times,serif" font-size="14.00">CY&#45;RCP&#45;OCTO&#45;J</text>
</g>
<!-- PTZ Switch&#45;&#45;CY&#45;RCP&#45;OCTO&#45;J_0 -->
<g id="edge35" class="edge">
<title>PTZ Switch:w&#45;&#45;CY&#45;RCP&#45;OCTO&#45;J_0:e</title>
<path fill="none" stroke="black" d="M240.5,-464C184.72,-464 170.78,-464 115,-464"/>
<text text-anchor="middle" x="156" y="-466.6" font-family="Times,serif" font-size="8.00">Ethernet Link</text>
</g>
<!-- CY&#45;RCP&#45;DUO&#45;J_0 -->
<g id="node41" class="node">
<title>CY&#45;RCP&#45;DUO&#45;J_0</title>
<polygon fill="#e0ffff" stroke="#e0ffff" points="111,-940 4,-940 4,-904 111,-904 111,-940"/>
<text text-anchor="middle" x="57.5" y="-918.3" font-family="Times,serif" font-size="14.00">CY&#45;RCP&#45;DUO&#45;J</text>
</g>
<!-- Shoulder Camcorder Switch&#45;&#45;CY&#45;RCP&#45;DUO&#45;J_0 -->
<g id="edge36" class="edge">
<title>Shoulder Camcorder Switch:w&#45;&#45;CY&#45;RCP&#45;DUO&#45;J_0:e</title>
<path fill="none" stroke="black" d="M197,-841C179.11,-841 190.79,-863.55 179,-877 155.48,-903.83 148.19,-922 112.5,-922"/>
<text text-anchor="middle" x="156" y="-920.6" font-family="Times,serif" font-size="8.00">Ethernet Link</text>
</g>
<!-- CY&#45;RCP&#45;DUO&#45;J_1 -->
<g id="node42" class="node">
<title>CY&#45;RCP&#45;DUO&#45;J_1</title>
<polygon fill="#e0ffff" stroke="#e0ffff" points="111,-886 4,-886 4,-850 111,-850 111,-886"/>
<text text-anchor="middle" x="57.5" y="-864.3" font-family="Times,serif" font-size="14.00">CY&#45;RCP&#45;DUO&#45;J</text>
</g>
<!-- Shoulder Camcorder Switch&#45;&#45;CY&#45;RCP&#45;DUO&#45;J_1 -->
<g id="edge37" class="edge">
<title>Shoulder Camcorder Switch:w&#45;&#45;CY&#45;RCP&#45;DUO&#45;J_1:e</title>
<path fill="none" stroke="black" d="M197,-841C157.57,-841 151.93,-868 112.5,-868"/>
<text text-anchor="middle" x="156" y="-866.6" font-family="Times,serif" font-size="8.00">Ethernet Link</text>
</g>
<!-- CY&#45;RCP&#45;DUO&#45;J_2 -->
<g id="node43" class="node">
<title>CY&#45;RCP&#45;DUO&#45;J_2</title>
<polygon fill="#e0ffff" stroke="#e0ffff" points="111,-832 4,-832 4,-796 111,-796 111,-832"/>
<text text-anchor="middle" x="57.5" y="-810.3" font-family="Times,serif" font-size="14.00">CY&#45;RCP&#45;DUO&#45;J</text>
</g>
<!-- Shoulder Camcorder Switch&#45;&#45;CY&#45;RCP&#45;DUO&#45;J_2 -->
<g id="edge38" class="edge">
<title>Shoulder Camcorder Switch:w&#45;&#45;CY&#45;RCP&#45;DUO&#45;J_2:e</title>
<path fill="none" stroke="black" d="M197,-841C187.62,-841 187.66,-833.58 179,-830 150.91,-818.38 142.9,-814 112.5,-814"/>
<text text-anchor="middle" x="156" y="-832.6" font-family="Times,serif" font-size="8.00">Ethernet Link</text>
</g>
<!-- CY&#45;RCP&#45;DUO&#45;J_3 -->
<g id="node44" class="node">
<title>CY&#45;RCP&#45;DUO&#45;J_3</title>
<polygon fill="#e0ffff" stroke="#e0ffff" points="111,-778 4,-778 4,-742 111,-742 111,-778"/>
<text text-anchor="middle" x="57.5" y="-756.3" font-family="Times,serif" font-size="14.00">CY&#45;RCP&#45;DUO&#45;J</text>
</g>
<!-- Shoulder Camcorder Switch&#45;&#45;CY&#45;RCP&#45;DUO&#45;J_3 -->
<g id="edge39" class="edge">
<title>Shoulder Camcorder Switch:w&#45;&#45;CY&#45;RCP&#45;DUO&#45;J_3:e</title>
<path fill="none" stroke="black" d="M197,-841C177.91,-841 191.59,-816.35 179,-802 155.95,-775.72 147.46,-760 112.5,-760"/>
<text text-anchor="middle" x="156" y="-804.6" font-family="Times,serif" font-size="8.00">Ethernet Link</text>
</g>
<!-- CY&#45;RCP&#45;DUO&#45;J_4 -->
<g id="node45" class="node">
<title>CY&#45;RCP&#45;DUO&#45;J_4</title>
<polygon fill="#e0ffff" stroke="#e0ffff" points="111,-1105 4,-1105 4,-1069 111,-1069 111,-1105"/>
<text text-anchor="middle" x="57.5" y="-1083.3" font-family="Times,serif" font-size="14.00">CY&#45;RCP&#45;DUO&#45;J</text>
</g>
<!-- DSLR Switch&#45;&#45;CY&#45;RCP&#45;DUO&#45;J_4 -->
<g id="edge40" class="edge">
<title>DSLR Switch:w&#45;&#45;CY&#45;RCP&#45;DUO&#45;J_4:e</title>
<path fill="none" stroke="black" d="M235.5,-1053C178.78,-1053 169.22,-1087 112.5,-1087"/>
<text text-anchor="middle" x="156" y="-1087.6" font-family="Times,serif" font-size="8.00">Ethernet Link</text>
</g>
<!-- CY&#45;RCP&#45;DUO&#45;J_5 -->
<g id="node46" class="node">
<title>CY&#45;RCP&#45;DUO&#45;J_5</title>
<polygon fill="#e0ffff" stroke="#e0ffff" points="111,-1051 4,-1051 4,-1015 111,-1015 111,-1051"/>
<text text-anchor="middle" x="57.5" y="-1029.3" font-family="Times,serif" font-size="14.00">CY&#45;RCP&#45;DUO&#45;J</text>
</g>
<!-- DSLR Switch&#45;&#45;CY&#45;RCP&#45;DUO&#45;J_5 -->
<g id="edge41" class="edge">
<title>DSLR Switch:w&#45;&#45;CY&#45;RCP&#45;DUO&#45;J_5:e</title>
<path fill="none" stroke="black" d="M235.5,-1053C180.12,-1053 167.88,-1033 112.5,-1033"/>
<text text-anchor="middle" x="156" y="-1046.6" font-family="Times,serif" font-size="8.00">Ethernet Link</text>
</g>
<!-- CY&#45;RCP&#45;DUO&#45;J_6 -->
<g id="node47" class="node">
<title>CY&#45;RCP&#45;DUO&#45;J_6</title>
<polygon fill="#e0ffff" stroke="#e0ffff" points="111,-1238 4,-1238 4,-1202 111,-1202 111,-1238"/>
<text text-anchor="middle" x="57.5" y="-1216.3" font-family="Times,serif" font-size="14.00">CY&#45;RCP&#45;DUO&#45;J</text>
</g>
<!-- Large Sensor Switch&#45;&#45;CY&#45;RCP&#45;DUO&#45;J_6 -->
<g id="edge42" class="edge">
<title>Large Sensor Switch:w&#45;&#45;CY&#45;RCP&#45;DUO&#45;J_6:e</title>
<path fill="none" stroke="black" d="M216.5,-1181C167.13,-1181 161.87,-1220 112.5,-1220"/>
<text text-anchor="middle" x="156" y="-1219.6" font-family="Times,serif" font-size="8.00">Ethernet Link</text>
</g>
<!-- CY&#45;RCP&#45;DUO&#45;J_7 -->
<g id="node48" class="node">
<title>CY&#45;RCP&#45;DUO&#45;J_7</title>
<polygon fill="#e0ffff" stroke="#e0ffff" points="111,-1184 4,-1184 4,-1148 111,-1148 111,-1184"/>
<text text-anchor="middle" x="57.5" y="-1162.3" font-family="Times,serif" font-size="14.00">CY&#45;RCP&#45;DUO&#45;J</text>
</g>
<!-- Large Sensor Switch&#45;&#45;CY&#45;RCP&#45;DUO&#45;J_7 -->
<g id="edge43" class="edge">
<title>Large Sensor Switch:w&#45;&#45;CY&#45;RCP&#45;DUO&#45;J_7:e</title>
<path fill="none" stroke="black" d="M216.5,-1181C169.8,-1181 159.2,-1166 112.5,-1166"/>
<text text-anchor="middle" x="156" y="-1178.6" font-family="Times,serif" font-size="8.00">Ethernet Link</text>
</g>
</g>
</svg>
